#!OML:ASF F:\VICON\USERDATA\INSTALL\rory3\rory3.ASF
:FULLY-SPECIFIED
:DEGREES
63
root -0.20103962211726606 18.47973634273673 8.844657932783132 7.297372940836327 -3.766914189502968 -2.908936806452994
lfemur 19.824286047561923 -3.4082999213091973 -26.614072805932842
ltibia 22.85045876770883
lfoot 25.922380313635188 -14.356207224154229
ltoes -25.964521146942207
rfemur -49.23328915967096 -0.5582508285113785 24.971529896599733
rtibia 50.59713024007507
rfoot -2.216149267865771 -1.8601684172462676
rtoes -22.687211197618407
lowerback nan -2.0172167645355157 -1.0303659077932261
upperback -2.974460890337764 -2.690993396415485 3.7572021103272624
thorax -9.81173623080894 -1.079287565676206 5.0138061049566005
lowerneck -21.226634887107824 -1.9512700593001837 -1.597111363299955
upperneck 13.976284283708537 -2.3375887599203446 2.266319528706534
head 8.082744884224354 -0.9116929515171224 0.5334209181445422
lclavicle 8.561398392654164e-15 -4.5499036213455485e-14
lhumerus -31.831052758544654 -23.88352173981898 96.00734004490491
lradius 119.51530135211385
lwrist 35.597063947473124
lhand -23.015751838600607 0.28794507359241783
lfingers nan
lthumb 3.4510925363540528 30.215301263887884
rclavicle 1.3212404937346847e-14 -4.252191847171869e-14
rhumerus -67.25007517877978 -0.5120909210478377 -89.529836844428
rradius 111.65637799167173
rwrist -6.775654657307287
rhand -12.737025970574777 nan
rfingers nan
rthumb 13.594932187034566 9.716584048277493
64
root -0.18913027625384202 18.499862378143916 9.472022373750558 7.035367899493557 -3.8229331807664773 -2.8749337019198347
lfemur 20.339291587972337 -3.8774554666319934 -26.9599810829982
ltibia 23.784233605679017
lfoot 26.40918856180404 -14.512758600014507
ltoes -20.270593317286725
rfemur -48.12371032494366 -0.4637441672093108 25.272327562481117
rtibia 45.99568016743406
rfoot -2.5380541247089745 -2.0466404591981684
rtoes -25.141643296285803
lowerback nan -2.002942671270451 -0.9596776893131644
upperback -2.613110465029483 -2.6539086089194823 3.759554513223475
thorax -9.142443991274074 -1.0615779452116305 5.065412961721773
lowerneck -21.798327124652495 -1.869956271147968 -1.6618019385771483
upperneck 14.01132153477323 -2.1687182236756355 2.2652159976832698
head 8.144449205489833 -0.851344241063781 0.5564425595415025
lclavicle -4.137063174763731e-14 -1.663738680598002e-14
lhumerus -31.529894810482926 -24.719039442579188 96.0029383407353
lradius 118.35839695380635
lwrist 34.69426078932525
lhand -22.82971366455125 -0.5922742186166994
lfingers nan
lthumb 3.611620252969437 29.285135325288273
rclavicle -3.6624386975992904e-14 -1.3759814227433458e-14
rhumerus -66.97481111374472 -1.3570018203524494 -88.90155689293024
rradius 111.9710860606071
rwrist -5.129287253076242
rhand -12.684447071442094 nan
rfingers nan
rthumb 13.60473061760169 9.604532598809776
65
root -0.17933842281749415 18.51036794713247 9.540339801780028 7.055832759913158 -3.7513806823527 -2.4975059214232416
lfemur 20.362561120019603 -4.360739650045732 -27.65023224554633
ltibia 25.278217876627235
lfoot 25.88980286245479 -14.089055154032389
ltoes -16.572866872272055
rfemur -47.322816476117 -0.5742016927774511 25.151051790166296
rtibia 41.87758010220368
rfoot -2.7087293782498376 -2.4177897621447437
rtoes -25.96973711844907
lowerback nan -1.9715976746283097 -1.3256565776613365
upperback -2.2495080492808084 -2.6992778739889483 3.597339539935784
thorax -8.201733830872413 -1.0959183328532893 5.1818089130088945
lowerneck -22.48461993528087 -1.8415455350393988 -1.4588917753685249
upperneck 14.008344384436993 -2.1291191029501 2.176656198366245
head 8.210646116373672 -0.8409445745402939 0.5126153764826195
lclavicle -1.3906174983207942e-14 3.992906426942248e-15
lhumerus -31.264247750777937 -25.605656434415447 95.98496779002633
lradius 117.22692709367226
lwrist 34.07563622217887
lhand -22.632482884083824 -0.9581536220396771
lfingers nan
lthumb 3.7944107995945187 28.909372835686124
rclavicle -9.371823247421378e-15 6.928069810180365e-15
rhumerus -66.36370805971859 -2.275493992228503 -88.51259690805247
rradius 112.06372563239
rwrist -2.6362139773504163
rhand -12.835747799471063 nan
rfingers nan
rthumb 13.425854470325817 9.325342154763026
66
root -0.1793758641906728 18.518239854354796 9.744577452998103 7.0663704803880645 -3.459961719327377 -2.1150380185055946
lfemur 20.01605037873993 -4.758868293086053 -28.167609760696028
ltibia 27.250475028611763
lfoot 24.625631740318028 -13.806372207520308
ltoes -15.247648173072292
rfemur -46.65819525034338 -0.7475504046593704 24.948955720525618
rtibia 38.42672010808785
rfoot -3.095181239558589 -3.0973866872130205
rtoes -26.758630333775898
lowerback nan -1.9994426814451867 -1.6831805771557695
upperback -2.2382972219855537 -2.835012990020661 3.5016747591284263
thorax -8.062435664914178 -1.1288726399109175 5.24376828901908
lowerneck -22.94120456455466 -1.9103749932329388 -1.4203225861443218
upperneck 14.160620190326451 -2.1739854409464545 2.0710502935042343
head 8.298545886986089 -0.8696699642573158 0.47711594469122953
lclavicle -5.021463111716993e-15 -2.359471382840422e-15
lhumerus -31.740960900135523 -26.178039417163564 96.28799837936113
lradius 116.17138384754264
lwrist 34.001134966120276
lhand -22.444906344621312 -0.7928900690927743
lfingers nan
lthumb 3.970955141077261 29.075611552603906
rclavicle -4.2288950374422124e-16 6.912743923306161e-16
rhumerus -65.93110633994827 -3.0660453129097096 -88.21958148379807
rradius 112.11812568882605
rwrist -0.8009691327000414
rhand -12.885158547788764 nan
rfingers nan
rthumb 13.352091736077607 9.30257308403873
